<svg xmlns="http://www.w3.org/2000/svg" version="1.1" xmlns:xlink="http://www.w3.org/1999/xlink" xmlnsSvgjs="http://svgjs.dev/svgjs" width="1000" height="623" viewBox="0 0 1000 623"><g transform="matrix(1,0,0,1,-0.6060606060606233,0.2522267206477409)"><svg viewBox="0 0 396 247" data-background-color="#333366" preserveAspectRatio="xMidYMid meet" height="623" width="1000" xmlns="http://www.w3.org/2000/svg" xmlns:xlink="http://www.w3.org/1999/xlink"><g id="tight-bounds" transform="matrix(1,0,0,1,0.2400000000000091,-0.09999999999999432)"><svg viewBox="0 0 395.52 247.2" height="247.2" width="395.52"><g><svg></svg></g><g><svg viewBox="0 0 395.52 247.2" height="247.2" width="395.52"><g transform="matrix(1,0,0,1,75.54432,72.42264891052952)"><svg viewBox="0 0 244.43135999999998 102.35470217894094" height="102.35470217894094" width="244.43135999999998"><g><svg viewBox="0 0 244.43135999999998 102.35470217894094" height="102.35470217894094" width="244.43135999999998"><g><svg viewBox="0 0 244.43135999999998 102.35470217894094" height="102.35470217894094" width="244.43135999999998"><g><svg viewBox="0 0 244.43135999999998 102.35470217894094" height="102.35470217894094" width="244.43135999999998"><g id="textblocktransform"><svg viewBox="0 0 244.43135999999998 102.35470217894094" height="102.35470217894094" width="244.43135999999998" id="textblock"><g><svg viewBox="0 0 244.43135999999998 102.35470217894094" height="102.35470217894094" width="244.43135999999998"><g transform="matrix(1,0,0,1,0,0)"><svg width="244.43135999999998" viewBox="3.700000047683716 -34.400001525878906 82.1500015258789 34.400001525878906" height="102.35470217894094" data-palette-color="#06d6a0"><path d="M37.95 0L28.3 0 13.85-16.7 13.85 0 3.7 0 3.7-34.4 13.35-34.4 27.8-17.45 27.8-34.4 37.95-34.4 37.95 0ZM85.85 0L74.9 0 74.9-12.4Q74.9-14.7 75.07-17.13 75.25-19.55 75.45-21.2 75.65-22.85 75.7-23.3L75.7-23.3 75.5-23.3 69.15 0 60.5 0 54.1-23.25 53.9-23.25Q53.95-22.8 54.17-21.18 54.4-19.55 54.6-17.13 54.8-14.7 54.8-12.4L54.8-12.4 54.8 0 44.65 0 44.65-34.4 60.25-34.4 65.45-14.55 65.65-14.55 70.8-34.4 85.85-34.4 85.85 0Z" opacity="1" transform="matrix(1,0,0,1,0,0)" fill="#06d6a0" class="undefined-text-0" data-fill-palette-color="primary" id="text-0"></path></svg></g></svg></g></svg></g></svg></g></svg></g></svg></g></svg></g><path d="M227.882 66.423L227.882 15.339 11.361 15.339 11.361 231.861 227.882 231.861 227.882 180.777 218.652 180.777 218.652 222.63 20.591 222.63 20.591 24.57 218.652 24.57 218.652 66.423Z" fill="#06d6a0" stroke="transparent" data-fill-palette-color="primary"></path></svg></g><defs></defs></svg><rect width="395.52" height="247.2" fill="none" stroke="none" visibility="hidden"></rect></g></svg></g></svg>