<svg xmlns="http://www.w3.org/2000/svg" version="1.1" xmlns:xlink="http://www.w3.org/1999/xlink" xmlnSvgjs="http://svgjs.dev/svgjs" width="1000" height="1012" viewBox="0 0 1000 1012"><g transform="matrix(1,0,0,1,0.883934426229473,0.40971659919023296)"><svg viewBox="0 0 244 247" data-background-color="#ffffff" preserveAspectRatio="xMidYMid meet" height="1012" width="1000" xmlns="http://www.w3.org/2000/svg" xmlns:xlink="http://www.w3.org/1999/xlink"><g id="tight-bounds" transform="matrix(1,0,0,1,-0.21567999999999188,-0.09999999999999432)"><svg viewBox="0 0 244.43135999999998 247.2" height="247.2" width="244.43135999999998"><g><svg></svg></g><g><svg viewBox="0 0 244.43135999999998 247.2" height="247.2" width="244.43135999999998"><g transform="matrix(1,0,0,1,0,65.2255660348749)"><svg viewBox="0 0 244.43135999999998 116.74886793025017" height="116.74886793025017" width="244.43135999999998"><g><svg viewBox="0 0 244.43135999999998 116.74886793025017" height="116.74886793025017" width="244.43135999999998"><g><svg viewBox="0 0 244.43135999999998 116.74886793025017" height="116.74886793025017" width="244.43135999999998"><g><svg viewBox="0 0 244.43135999999998 116.74886793025017" height="116.74886793025017" width="244.43135999999998"><g><svg viewBox="0 0 244.43135999999998 116.74886793025017" height="116.74886793025017" width="244.43135999999998"><g><svg viewBox="0 0 244.43135999999998 116.74886793025017" height="116.74886793025017" width="244.43135999999998"><g transform="matrix(1,0,0,1,0,0)"><svg width="244.43135999999998" viewBox="1.75 -31.5 65.95 31.5" height="116.74886793025017" data-palette-color="#fca311"><path d="M26.9 0L25.3 0 6.5-27.9 6.5-1.6Q6.5-0.9 7.2-0.9L7.2-0.9 9.55-0.9 9.55 0 1.75 0 1.75-0.9 4.1-0.9Q4.8-0.9 4.8-1.6L4.8-1.6 4.8-30Q4.8-30.6 4.1-30.6L4.1-30.6 1.75-30.6 1.75-31.5 9.1-31.5 25.2-7.7 25.2-29.9Q25.2-30.6 24.5-30.6L24.5-30.6 22.15-30.6 22.15-31.5 29.95-31.5 29.95-30.6 27.6-30.6Q26.9-30.6 26.9-30L26.9-30 26.9 0ZM67.7 0L57.5 0 57.5-0.9 59.85-0.9Q60.55-0.9 60.55-1.5L60.55-1.5 60.55-27.05 50.1 0 48.4 0 37.95-26.3 37.95-1.6Q37.95-0.9 38.65-0.9L38.65-0.9 41-0.9 41 0 33.2 0 33.2-0.9 35.55-0.9Q36.25-0.9 36.25-1.6L36.25-1.6 36.25-30Q36.25-30.6 35.55-30.6L35.55-30.6 33.2-30.6 33.2-31.5 40.35-31.5 50.55-5.65 60.55-31.5 67.7-31.5 67.7-30.6 65.35-30.6Q64.65-30.6 64.65-29.9L64.65-29.9 64.65-1.5Q64.65-0.9 65.35-0.9L65.35-0.9 67.7-0.9 67.7 0Z" opacity="1" transform="matrix(1,0,0,1,0,0)" fill="#fca311" class="undefined-text-0" data-fill-palette-color="primary" id="text-0"></path></svg></g></svg></g></svg></g></svg></g><g></g></svg></g></svg></g></svg></g><path d="M0 59.226L0 1 244.431 1 244.431 59.226 237.923 59.226 237.923 7.508 6.508 7.508 6.508 59.226 0 59.226M0 187.974L0 246.2 244.431 246.2 244.431 187.974 237.923 187.974 237.923 239.692 6.508 239.692 6.508 187.974 0 187.974" fill="#fca311" stroke="transparent" data-fill-palette-color="primary"></path></svg></g><defs></defs></svg><rect width="244.43135999999998" height="247.2" fill="none" stroke="none" visibility="hidden"></rect></g></svg></g></svg>